<?xml version="1.0" encoding="UTF-8" standalone="no"?>
<!-- Created with Inkscape (http://www.inkscape.org/) -->
<svg
   xmlns:dc="http://purl.org/dc/elements/1.1/"
   xmlns:cc="http://web.resource.org/cc/"
   xmlns:rdf="http://www.w3.org/1999/02/22-rdf-syntax-ns#"
   xmlns:svg="http://www.w3.org/2000/svg"
   xmlns="http://www.w3.org/2000/svg"
   xmlns:xlink="http://www.w3.org/1999/xlink"
   xmlns:sodipodi="http://sodipodi.sourceforge.net/DTD/sodipodi-0.dtd"
   xmlns:inkscape="http://www.inkscape.org/namespaces/inkscape"
   height="407.0705"
   width="388.64563"
   id="svg8418"
   sodipodi:version="0.32"
   inkscape:version="0.44.1"
   sodipodi:docbase="D:\dokumenty\kot\do wiki\upload"
   sodipodi:docname="Basketball ball.svg"
   version="1.0">
  <defs
     id="defs8420">
    <linearGradient
       id="linearGradient18301">
      <stop
         style="stop-color:black;stop-opacity:1;"
         offset="0"
         id="stop18303" />
      <stop
         id="stop18309"
         offset="0.5"
         style="stop-color:black;stop-opacity:1;" />
      <stop
         style="stop-color:black;stop-opacity:1;"
         offset="0.75"
         id="stop18311" />
      <stop
         id="stop18313"
         offset="0.875"
         style="stop-color:black;stop-opacity:0.72164947;" />
      <stop
         style="stop-color:black;stop-opacity:0.50515461;"
         offset="0.9375"
         id="stop18315" />
      <stop
         id="stop18317"
         offset="0.96875"
         style="stop-color:black;stop-opacity:0.3298969;" />
      <stop
         style="stop-color:black;stop-opacity:0;"
         offset="1"
         id="stop18305" />
    </linearGradient>
    <linearGradient
       id="linearGradient12963">
      <stop
         style="stop-color:#fa4;stop-opacity:1"
         offset="0"
         id="stop12965" />
      <stop
         id="stop15642"
         offset="0.5"
         style="stop-color:#c3791f;stop-opacity:1;" />
      <stop
         style="stop-color:#935000;stop-opacity:1;"
         offset="1"
         id="stop12967" />
    </linearGradient>
    <radialGradient
       inkscape:collect="always"
       xlink:href="#linearGradient12963"
       id="radialGradient12969"
       cx="449.12918"
       cy="345.23175"
       fx="449.12918"
       fy="345.23175"
       r="184.96443"
       gradientUnits="userSpaceOnUse"
       gradientTransform="matrix(1.06455,-4.457048e-3,4.186833e-3,1.000012,-30.43703,1.997764)" />
    <radialGradient
       inkscape:collect="always"
       xlink:href="#linearGradient18301"
       id="radialGradient18307"
       cx="492.85715"
       cy="379.50504"
       fx="492.85715"
       fy="379.50504"
       r="184.96443"
       gradientUnits="userSpaceOnUse"
       gradientTransform="matrix(0.944964,4.150569e-2,-4.340623e-2,0.988234,43.59757,-15.99113)" />
  </defs>
  <sodipodi:namedview
     id="base"
     pagecolor="#ffffff"
     bordercolor="#666666"
     borderopacity="1.0"
     inkscape:pageopacity="0.0"
     inkscape:pageshadow="2"
     inkscape:cx="194.32283"
     inkscape:cy="203.53525"
     inkscape:zoom="1.1938964"
     inkscape:document-units="px"
     inkscape:current-layer="layer1"
     inkscape:window-width="1024"
     inkscape:window-height="682"
     inkscape:window-x="-4"
     inkscape:window-y="-4" />
  <metadata
     id="metadata8423">
    <rdf:RDF>
      <cc:Work
         rdf:about="">
        <dc:format>image/svg+xml</dc:format>
        <dc:type
           rdf:resource="http://purl.org/dc/dcmitype/StillImage" />
      </cc:Work>
    </rdf:RDF>
  </metadata>
  <g
     inkscape:groupmode="layer"
     inkscape:label="Warstwa 1"
     id="layer1"
     transform="translate(-312.8927,-197.5406)">
    <path
       transform="translate(25.71677,42.14162)"
       d="M 675.82158 379.50504 A 182.96443 182.96443 0 1 1  309.89272,379.50504 A 182.96443 182.96443 0 1 1  675.82158 379.50504 z"
       sodipodi:ry="182.96443"
       sodipodi:rx="182.96443"
       sodipodi:cy="379.50504"
       sodipodi:cx="492.85715"
       id="path15644"
       style="opacity:1;fill:url(#radialGradient18307);fill-opacity:1;stroke:none;stroke-width:4;stroke-linecap:round;stroke-linejoin:round;stroke-miterlimit:4;stroke-dasharray:none;stroke-dashoffset:0;stroke-opacity:1"
       sodipodi:type="arc" />
    <path
       sodipodi:type="arc"
       style="opacity:1;fill:url(#radialGradient12969);fill-opacity:1;stroke:none;stroke-width:4;stroke-linecap:round;stroke-linejoin:round;stroke-miterlimit:4;stroke-dasharray:none;stroke-dashoffset:0;stroke-opacity:1"
       id="path8522"
       sodipodi:cx="492.85715"
       sodipodi:cy="379.50504"
       sodipodi:rx="182.96443"
       sodipodi:ry="182.96443"
       d="M 675.82158 379.50504 A 182.96443 182.96443 0 1 1  309.89272,379.50504 A 182.96443 182.96443 0 1 1  675.82158 379.50504 z"
       transform="translate(3,1)" />
    <path
       style="opacity:1;color:black;fill:black;fill-opacity:1;fill-rule:nonzero;stroke:none;stroke-width:4;stroke-linecap:butt;stroke-linejoin:miter;marker:none;stroke-miterlimit:4;stroke-dasharray:none;stroke-dashoffset:0;stroke-opacity:1;visibility:visible;display:inline;overflow:visible"
       d="M 448.21432,203.83901 C 450.36313,204.6315 453.75174,205.94795 456.34375,207.71875 C 458.93576,209.48955 460.70727,211.5991 460.84375,214 C 461.1565,219.5018 462.73056,224.22855 456.3125,234.21875 C 449.89444,244.20895 435.16134,259.07637 402.75,282.4375 C 341.89198,326.30215 327.69756,419.11497 324.82774,445.4561 L 327.9384,453.22053 C 327.9384,453.22053 336.06337,335.44254 405.09375,285.6875 C 437.69027,262.19289 452.72065,247.17079 459.65625,236.375 C 466.59185,225.57921 465.12192,218.64356 464.84375,213.75 C 464.60642,209.57479 461.69349,206.55518 458.59375,204.4375 C 457.315,203.56388 455.94644,202.87002 454.65334,202.2368 L 448.21432,203.83901 z "
       id="path9409"
       sodipodi:nodetypes="cssssccsssscc" />
    <path
       style="opacity:1;color:black;fill:black;fill-opacity:1;fill-rule:nonzero;stroke:none;stroke-width:4;stroke-linecap:butt;stroke-linejoin:miter;marker:none;stroke-miterlimit:4;stroke-dasharray:none;stroke-dashoffset:0;stroke-opacity:1;visibility:visible;display:inline;overflow:visible"
       d="M 509.01528,198.02937 C 499.53358,209.87282 477.91722,245.5091 465.15625,336.75 C 449.39628,449.43374 450.70852,546.83082 450.91598,557.84038 L 454.9375,558.75 C 454.9375,558.75 452.43678,456.60195 469.125,337.28125 C 482.74755,239.88008 506.43369,206.85787 513.90048,198.46178 C 513.90048,198.46178 509.01528,198.02937 509.01528,198.02937 z "
       id="path9411"
       sodipodi:nodetypes="csccscc" />
    <path
       style="opacity:1;color:black;fill:black;fill-opacity:1;fill-rule:nonzero;stroke:none;stroke-width:4;stroke-linecap:butt;stroke-linejoin:miter;marker:none;stroke-miterlimit:4;stroke-dasharray:none;stroke-dashoffset:0;stroke-opacity:1;visibility:visible;display:inline;overflow:visible"
       d="M 556.6875,211.625 C 547.0438,211.8095 537.01703,214.51544 529.96875,222.90625 C 520.74474,233.88721 520.91652,245.76284 524.5,256.1875 C 528.08348,266.61216 534.88069,275.92531 538.96875,282.875 C 541.20112,286.67003 547.45814,295.57779 555.4375,309.1875 C 563.41686,322.79721 573.02573,340.97669 581.71875,362.78125 C 599.10479,406.39038 612.72572,464.47037 601.9375,529.59375 C 601.9375,529.59375 606.5655,526.08172 606.5655,526.08172 C 616.26061,461.73706 602.63933,404.42832 585.4375,361.28125 C 576.65129,339.24295 566.92996,320.8949 558.875,307.15625 C 550.82004,293.4176 544.35231,284.15204 542.40625,280.84375 C 538.13746,273.5868 531.59217,264.50677 528.28125,254.875 C 524.97033,245.24323 524.70586,235.41118 533.03125,225.5 C 541.18293,215.79562 554.20308,214.66443 565.5625,216.125 C 576.92192,217.58557 586.26153,221.51972 586.26153,221.51972 C 586.26153,221.51972 568.49535,212.55885 568.49535,212.55885 C 567.63548,212.41794 566.98202,212.27046 566.09375,212.15625 C 563.09277,211.77039 559.90207,211.5635 556.6875,211.625 z "
       id="path9413"
       sodipodi:nodetypes="csssssccssssssccsc" />
    <path
       style="opacity:1;color:black;fill:black;fill-opacity:1;fill-rule:nonzero;stroke:none;stroke-width:4;stroke-linecap:butt;stroke-linejoin:miter;marker:none;stroke-miterlimit:4;stroke-dasharray:none;stroke-dashoffset:0;stroke-opacity:1;visibility:visible;display:inline;overflow:visible"
       d="M 458.15625,224.96875 C 424.33124,226.01594 399.1972,233.81099 381.5,242.40625 C 376.05652,245.05007 371.36415,247.88263 367.2855,250.51507 C 362.72383,255.08465 357.48708,260.80582 350.5625,269.40625 C 350.5625,269.40625 360.3001,257.14641 383.25,246 C 406.1999,234.85359 442.22471,224.97829 494.53125,230.375 C 599.18056,241.17215 643.20884,296.98475 675.71875,347 C 675.71875,347 673.37503,336.37355 673.37503,336.37355 C 641.03129,288.32441 594.99108,236.69798 494.9375,226.375 C 481.69006,225.0082 469.43125,224.61969 458.15625,224.96875 z "
       id="path9415"
       sodipodi:nodetypes="csccssccsc" />
  </g>
</svg>
